PathFileType	4	(X/Y/Z)	C:\Users\Basilio\Documents\Thesis Gigler\squatting_fais\c3dfiles\040\SJ_pre2\markers_experimental.trc
DataRate	CameraRate	NumFrames	NumMarkers	Units	OrigDataRate	OrigDataStartFrame	OrigNumFrames
200.000000	200.000000	4	64	mm	200.000000	0	1328
Frame#	Time	FHD			LBHD			RBHD			C7			T10			CLAV			LSHO			LUUPA			LMUPA			LDUPA			LLEP			LMEP			LRAD			LUL			LRFIN			RSHO			RUPA1			RMUPA			RDUPA			RLEP			RMEP			RRAD			RUL			RUFIN			RASI			USACR			LSACR			RSACR			LTHI1			LTHI2			LTHI3			LTHI4			LLFC			LMFC			LTIB1			LTIB2			LTIB3			LTIB4			LLMAL			LMMAL			LHEE			LMT1			LMT2			LMT5			RTHI			RTHI2			RTHI3			RTHI4			RLFC			RMFC			RTIB1			RTIB2			RTIB3			RTIB4			RLMAL			RMMAL			RHEE			RMT1			RMT2			RMT5			LASI			*61			*62			*63			
		X1	Y1	Z1	X2	Y2	Z2	X3	Y3	Z3	X4	Y4	Z4	X5	Y5	Z5	X6	Y6	Z6	X7	Y7	Z7	X8	Y8	Z8	X9	Y9	Z9	X10	Y10	Z10	X11	Y11	Z11	X12	Y12	Z12	X13	Y13	Z13	X14	Y14	Z14	X15	Y15	Z15	X16	Y16	Z16	X17	Y17	Z17	X18	Y18	Z18	X19	Y19	Z19	X20	Y20	Z20	X21	Y21	Z21	X22	Y22	Z22	X23	Y23	Z23	X24	Y24	Z24	X25	Y25	Z25	X26	Y26	Z26	X27	Y27	Z27	X28	Y28	Z28	X29	Y29	Z29	X30	Y30	Z30	X31	Y31	Z31	X32	Y32	Z32	X33	Y33	Z33	X34	Y34	Z34	X35	Y35	Z35	X36	Y36	Z36	X37	Y37	Z37	X38	Y38	Z38	X39	Y39	Z39	X40	Y40	Z40	X41	Y41	Z41	X42	Y42	Z42	X43	Y43	Z43	X44	Y44	Z44	X45	Y45	Z45	X46	Y46	Z46	X47	Y47	Z47	X48	Y48	Z48	X49	Y49	Z49	X50	Y50	Z50	X51	Y51	Z51	X52	Y52	Z52	X53	Y53	Z53	X54	Y54	Z54	X55	Y55	Z55	X56	Y56	Z56	X57	Y57	Z57	X58	Y58	Z58	X59	Y59	Z59	X60	Y60	Z60	X61	Y61	Z61	X62	Y62	Z62	X63	Y63	Z63	X64	Y64	Z64	

1	0	-141.8009490966797	1708.40673828125	-910.0140380859377	-282.1003723144532	1697.134033203125	-910.4810180664065	-302.3915405273438	1684.624633789063	-766.2234497070314	-361.0757141113282	1558.389038085938	-820.023864746094	-441.7393188476564	1241.309692382813	-824.330993652344	-248.8118286132813	1466.694946289063	-815.1599731445315	-299.5896301269532	1517.3994140625	-988.577819824219	-374.1432495117188	1364.929321289063	-1120.196899414063	-348.2833862304688	1323.391723632813	-1111.641967773438	-390.8805541992189	1305.121948242188	-1151.72412109375	-414.4600830078126	1246.18115234375	-1180.12841796875	-467.6499023437501	1230.624145507813	-1126.960083007813	-254.1842803955079	1105.463989257813	-976.2944335937502	-250.2373352050782	1059.338500976563	-1034.980224609375	-174.2015228271485	1080.422485351563	-958.8868408203127	-302.5520019531251	1507.802124023438	-646.2064819335939	-397.8575744628907	1401.067138671875	-494.203094482422	-371.3374328613282	1359.434204101563	-488.481658935547	-415.9024353027345	1350.423828125	-448.9569702148439	-421.4066162109376	1290.087768554688	-411.5881652832032	-484.2134704589845	1263.236450195313	-462.6647033691407	-288.0288391113282	1132.904541015625	-612.4110107421876	-272.8194274902344	1089.762084960938	-552.3231201171876	-223.0877532958985	1100.119384765625	-653.9768066406251	-294.7842712402344	1042.420166015625	-702.8651123046876	-468.218231201172	1108.798828125	-822.630554199219	-477.0010986328126	1080.734985351563	-850.7471313476565	-484.0808410644532	1079.725830078125	-796.4100341796877	-411.9593200683595	808.9456176757815	-1031.41552734375	-372.4844665527344	737.4475708007814	-1054.107055664063	-324.2911987304688	742.0969238281251	-1054.924072265625	-391.5604248046876	681.5764770507814	-1047.690063476563	-365.3244628906251	552.3850097656251	-1065.380249023438	-363.3387145996094	507.2935791015626	-940.204284667969	-330.9477539062501	325.8482971191407	-1070.851684570313	-401.8675231933595	297.5014038085938	-1115.669189453125	-361.6696777343751	286.6568908691407	-1104.434692382813	-351.7651672363282	201.7739715576172	-1085.613525390625	-416.4788208007814	109.629753112793	-1118.329833984375	-382.7796020507813	116.210189819336	-1034.884155273438	-471.1414184570314	48.18577194213869	-1075.770141601563	-249.4270019531251	62.15605545043947	-1060.9560546875	-251.3062133789063	60.20974731445314	-1106.764892578125	-300.3989868164063	36.09639358520509	-1153.493896484375	-381.4453735351563	793.9769287109377	-622.5922851562501	-350.3519592285157	734.3025512695314	-617.5701293945314	-317.2856140136719	734.5520629882814	-620.7447509765626	-384.0359497070314	658.9288330078126	-628.1802368164064	-382.9383544921876	523.8151855468751	-625.5388793945314	-367.9198608398438	505.0364990234376	-756.9218139648439	-347.2187805175782	332.7717590332032	-630.5880737304689	-426.9349365234376	263.9174194335938	-609.9506835937501	-381.5441589355469	255.3095703125001	-614.3912963867189	-367.3129577636719	206.1066284179688	-643.0834350585939	-433.3550720214845	100.0590591430664	-624.5223999023439	-399.7023010253907	106.3285446166992	-707.0777587890626	-481.9681091308595	46.68120193481446	-686.7565917968751	-261.3937377929688	55.72871398925783	-646.8116455078126	-273.9801940917969	58.29935836791994	-608.8966674804689	-324.6804504394532	35.08012771606446	-565.0813598632814	nan	nan	nan	nan	nan	nan	nan	nan	nan	nan	nan	nan	
2	0.005	-139.5409545898438	1706.453735351563	-908.8310546875002	-280.0346069335938	1696.997924804688	-909.7754516601565	-300.6449890136719	1684.843627929688	-765.6724853515626	-360.3957519531251	1558.643676757813	-819.3326416015627	-441.6889038085939	1241.29443359375	-823.7198486328127	-248.6386718750001	1466.459716796875	-814.6428222656252	-299.5964050292969	1517.89990234375	-987.9040527343752	-376.0125427246094	1367.862060546875	-1120.765258789063	-350.1977233886719	1325.795532226563	-1113.253051757813	-393.7723388671876	1308.791015625	-1152.909545898438	-417.7550659179689	1250.252197265625	-1182.02001953125	-470.8979492187501	1234.676879882813	-1128.810668945313	-259.0943298339844	1106.32421875	-979.4235839843752	-254.3951416015626	1061.107177734375	-1038.777099609375	-179.0413055419922	1082.11376953125	-961.9611816406252	-301.8853759765626	1508.113891601563	-645.5886840820314	-398.6072082519532	1403.725708007813	-493.2044067382814	-372.6500854492188	1361.634033203125	-487.0632629394532	-416.9580993652345	1353.552978515625	-447.6893310546876	-423.3906555175782	1293.827026367188	-409.7597045898439	-486.4443664550782	1267.055908203125	-460.5979919433595	-291.7872009277344	1134.13232421875	-609.5755004882814	-276.2937011718751	1091.332397460938	-549.2079467773439	-227.7462921142579	1101.517700195313	-651.3449707031251	-294.2726745605469	1042.481201171875	-702.8704833984376	-467.9769592285157	1108.802490234375	-821.8624267578127	-476.8678283691407	1080.63671875	-850.0525512695315	-483.7453613281251	1079.769409179688	-795.6607055664065	-412.1865539550782	808.7988281250002	-1030.953735351563	-372.6444396972657	737.3734130859376	-1053.74755859375	-324.5803527832032	742.1798095703126	-1054.679443359375	-391.5738220214845	681.4705810546876	-1047.189819335938	-365.1406250000001	552.2920532226564	-1065.094604492188	-363.4060974121094	507.2114868164064	-939.8516235351565	-330.9599609375001	325.7230224609376	-1070.332763671875	-401.7773437500001	297.4326782226563	-1115.42333984375	-361.4749145507813	286.6138305664063	-1103.961181640625	-351.9212036132813	201.5720977783204	-1085.140747070313	-416.5545349121095	109.7698974609375	-1118.1845703125	-383.1621093750001	116.0627365112305	-1034.485595703125	-471.4413452148439	48.09908676147462	-1075.925659179688	-250.0211944580079	62.00728225708009	-1060.5380859375	-251.5252838134766	60.67040252685548	-1106.416625976563	-300.5099182128907	36.71419906616212	-1153.37451171875	-380.8059692382813	794.040222167969	-622.2250366210939	-349.1794738769532	735.7231445312501	-616.7130737304689	-316.5765991210938	734.4054565429689	-620.7971801757814	-383.5263977050782	658.9675292968751	-627.7611083984376	-382.6271057128907	523.7839355468751	-625.2781372070314	-368.0370788574219	505.0846557617189	-756.8139038085939	-347.1104125976563	332.8028259277344	-630.5242309570314	-426.8390502929689	263.9225158691407	-609.8098754882814	-381.4537963867188	255.3132781982422	-614.3516845703126	-367.2615661621094	206.1131286621094	-643.1101074218751	-433.3788146972657	100.0590972900391	-624.4706420898439	-399.7114562988282	106.3845748901367	-707.0859985351564	-481.9454345703126	46.71382904052735	-686.7427368164064	-261.3947448730469	55.64166259765626	-646.8363647460939	-273.9388122558594	58.31665039062501	-608.9078979492189	-324.6631469726563	35.0846176147461	-565.1062622070314	nan	nan	nan	nan	nan	nan	nan	nan	nan	nan	nan	nan	
3	0.01	-137.310287475586	1704.654663085938	-907.8479003906252	-277.9393920898438	1696.885498046875	-909.1049804687502	-298.8448791503907	1685.103271484375	-765.1066284179689	-359.5108947753907	1558.843994140625	-818.6043701171877	-441.6993408203126	1241.30908203125	-823.164001464844	-248.3180236816407	1466.182983398438	-814.1409301757815	-299.3581542968751	1518.361572265625	-987.3294677734377	-377.7952575683594	1370.965087890625	-1121.23876953125	-352.8694458007813	1328.673706054688	-1114.19140625	-396.0795288085939	1312.180419921875	-1154.193725585938	-421.0355529785157	1254.391479492188	-1183.928100585938	-474.218475341797	1238.76318359375	-1130.734130859375	-263.9803161621094	1107.224975585938	-982.5930786132815	-258.3494873046876	1063.025756835938	-1042.503540039063	-183.934326171875	1083.076049804688	-965.178894042969	-301.1927490234376	1508.358520507813	-645.1433105468751	-399.9691772460939	1405.971557617188	-492.8284606933595	-373.7675781250001	1364.243408203125	-485.5005798339845	-418.491424560547	1356.86962890625	-446.3958129882814	-425.5241699218751	1297.423706054688	-407.955047607422	-488.8727416992189	1270.893188476563	-458.6094055175782	-295.9774780273438	1135.255004882813	-606.7872924804689	-280.0144348144532	1093.016357421875	-546.2472534179689	-232.2349395751954	1102.872924804688	-648.8609008789064	-293.8377380371094	1042.389282226563	-702.7342529296876	-467.794891357422	1108.782348632813	-821.3310546875002	-476.8087158203126	1080.564453125	-849.356140136719	-483.6168518066407	1079.774291992188	-794.9688720703127	-412.3225402832032	808.6030883789065	-1030.4296875	-372.7179260253907	737.1978149414064	-1053.296630859375	-324.7983093261719	742.5599975585939	-1054.877685546875	-391.5441284179689	681.3164672851564	-1046.709594726563	-364.9234924316407	552.1628417968751	-1064.761840820313	-363.3677062988282	507.0831298828126	-939.5523681640627	-330.9071044921876	325.5636901855469	-1069.7919921875	-401.6914672851564	297.3377380371094	-1115.108154296875	-361.2171630859376	286.4400329589844	-1103.3740234375	-352.0176696777344	201.3134307861329	-1084.57373046875	-416.646209716797	109.8594284057617	-1117.954223632813	-383.6585998535157	115.8271942138672	-1034.024658203125	-471.7710571289064	47.99505233764649	-1075.925415039063	-250.5386047363282	61.74890518188478	-1060.078491210938	-251.5862579345704	60.94820022583009	-1105.970092773438	-300.0926513671876	36.96642684936524	-1153.160400390625	-379.9982910156251	794.020202636719	-621.8727416992189	-349.7738342285157	734.2521362304689	-617.7750854492189	-316.5487670898438	733.2822875976564	-621.2335205078126	-383.0311584472657	659.0592651367189	-627.3241577148439	-382.4378967285157	523.7507324218751	-625.0540161132814	-368.0766296386719	505.1277465820314	-756.7026977539064	-346.8996887207032	332.8033447265626	-630.4951171875001	-426.7133178710939	263.8676757812501	-609.6734008789064	-381.3236999511719	255.2929382324219	-614.3165893554689	-367.1373596191407	206.1179962158204	-643.0653076171876	-433.3638610839845	100.0726852416992	-624.4450073242189	-399.7174377441407	106.379997253418	-707.0708007812501	-481.9735717773439	46.70663452148438	-686.7394409179689	-261.4683227539063	56.68171310424806	-646.8579711914064	-273.1760253906251	58.21590805053712	-608.4268798828126	-324.6785888671876	35.05352020263673	-565.1125488281251	nan	nan	nan	nan	nan	nan	nan	nan	nan	nan	nan	nan	
4	0.015	-135.1778106689453	1702.93310546875	-906.9228515625002	-275.7285461425782	1696.631591796875	-908.5087890625002	-297.6011047363282	1685.127807617188	-764.3707275390626	-358.8428039550782	1559.046508789063	-818.0083618164065	-441.6795349121095	1241.296752929688	-822.7209472656252	-248.0438232421876	1465.929809570313	-813.7137451171877	-299.2767639160157	1518.767578125	-986.738220214844	-379.5209960937501	1373.954467773438	-1121.806884765625	-354.5602722167969	1331.140258789063	-1115.759521484375	-398.7695922851564	1315.923461914063	-1155.428466796875	-424.1694946289064	1258.653442382813	-1185.826782226563	-477.4891662597657	1242.89501953125	-1132.577880859375	-268.8593444824219	1107.962524414063	-985.6058349609377	-262.5859680175782	1064.864135742188	-1046.335083007813	-188.7897338867188	1085.60302734375	-968.4370727539065	-300.4530334472657	1508.624633789063	-644.7678833007814	-400.9097900390626	1408.553466796875	-492.0081787109376	-374.9993591308594	1366.703369140625	-484.2454528808595	-419.6866455078126	1360.06396484375	-445.3275146484376	-427.5785217285157	1301.228637695313	-406.323455810547	-491.1099243164064	1274.763061523438	-456.8361206054689	-299.6744079589844	1136.470947265625	-604.3370971679689	-283.5213317871094	1094.622192382813	-543.4910278320314	-236.6335144042969	1104.094604492188	-646.4568481445314	-293.2831726074219	1042.341430664063	-702.7023315429689	-467.5779113769532	1108.694702148438	-820.7436523437502	-476.8404235839845	1080.478881835938	-848.798767089844	-483.3277282714845	1079.7578125	-794.2980957031252	-412.4456787109376	808.3864746093752	-1029.912963867188	-372.2445373535157	736.4649658203126	-1052.843872070313	-325.5996704101563	742.8473510742189	-1054.57421875	-391.5264587402345	681.0868530273439	-1046.16455078125	-364.6466674804688	552.0025634765626	-1064.415893554688	-364.0434875488282	506.6210327148439	-939.7052001953127	-330.8732299804688	325.3341979980469	-1069.112426757813	-401.492645263672	297.1646118164063	-1114.728393554688	-361.0026855468751	286.2269897460938	-1102.746459960938	-352.2028503417969	201.1352233886719	-1083.826171875	-416.7557067871095	109.9354705810547	-1117.55615234375	-384.0211181640626	115.5541152954102	-1033.57177734375	-472.0924682617189	47.74759674072266	-1075.892578125	-250.7147369384766	61.66205978393556	-1059.810791015625	-251.8960876464844	61.36956024169923	-1105.65087890625	-300.2496948242188	37.57254791259766	-1153.0576171875	-379.3063964843751	794.0883789062502	-621.5412597656251	-349.2065124511719	734.1943359375001	-617.4814453125001	-316.0137634277344	733.0878295898439	-621.1239624023439	-382.3762207031251	658.9989624023439	-626.9880981445314	-382.0032653808594	523.7513427734376	-624.8943481445314	-368.1039428710938	505.1838378906251	-756.5656127929689	-346.8696289062501	332.5183410644532	-630.8266601562501	-426.5838623046876	263.8088684082032	-609.5628051757814	-381.2546081542969	255.2134552001954	-614.2013549804689	-367.0121765136719	206.1290283203126	-643.1343383789064	-433.3548278808595	100.0596237182617	-624.4440307617189	-399.7012939453126	106.3664627075196	-707.0447998046876	-481.9878845214845	46.71358871459962	-686.7136840820314	-261.4583435058594	56.86313629150392	-646.9144287109376	-273.7468566894532	58.01675415039064	-608.9993896484376	-324.6620483398438	35.05417633056641	-565.0915527343751	nan	nan	nan	nan	nan	nan	nan	nan	nan	nan	nan	nan	
